<svg xmlns="http://www.w3.org/2000/svg" xmlns:xlink="http://www.w3.org/1999/xlink" width="500" zoomAndPan="magnify" viewBox="0 0 375 374.999991" height="500" preserveAspectRatio="xMidYMid meet" version="1.0"><defs><clipPath id="id1"><path d="M 9.734375 9.226562 L 365.234375 9.226562 L 365.234375 365 L 9.734375 365 Z M 9.734375 9.226562 " clip-rule="nonzero"/></clipPath><clipPath id="id2"><path d="M 10.617188 10.617188 L 364.617188 10.617188 L 364.617188 364.617188 L 10.617188 364.617188 Z M 10.617188 10.617188 " clip-rule="nonzero"/></clipPath></defs><g clip-path="url(#id1)"><path fill="#be123c" d="M 365.234375 187.34375 C 365.234375 285.519531 285.664062 364.96875 187.496094 364.96875 C 89.289062 364.96875 9.734375 285.519531 9.734375 187.34375 C 9.734375 89.265625 89.289062 9.730469 187.488281 9.730469 C 285.65625 9.730469 365.234375 89.265625 365.234375 187.34375 Z M 365.234375 187.34375 " fill-opacity="1" fill-rule="nonzero"/></g><path fill="#d1d3d4" d="M 157.851562 123.910156 L 267.824219 187.34375 L 157.851562 250.785156 Z M 157.851562 123.910156 " fill-opacity="1" fill-rule="nonzero"/><g clip-path="url(#id2)"><path fill="#000000" d="M 364.621094 187.617188 C 364.621094 163.722656 359.941406 140.542969 350.707031 118.714844 C 341.792969 97.636719 329.03125 78.710938 312.777344 62.457031 C 296.523438 46.203125 277.59375 33.441406 256.515625 24.527344 C 234.691406 15.292969 211.507812 10.613281 187.617188 10.613281 C 163.722656 10.613281 140.542969 15.292969 118.714844 24.527344 C 97.636719 33.441406 78.710938 46.203125 62.457031 62.457031 C 46.203125 78.710938 33.441406 97.636719 24.527344 118.714844 C 15.292969 140.542969 10.613281 163.722656 10.613281 187.617188 C 10.613281 211.507812 15.292969 234.691406 24.527344 256.515625 C 33.441406 277.59375 46.203125 296.523438 62.457031 312.777344 C 78.710938 329.03125 97.636719 341.792969 118.714844 350.707031 C 140.542969 359.941406 163.722656 364.621094 187.617188 364.621094 C 210.648438 364.621094 233.019531 360.269531 254.15625 351.683594 C 255.703125 351.773438 257.234375 352.003906 258.734375 352.382812 C 260.429688 352.8125 262.710938 353.292969 265.324219 353.210938 C 266.109375 353.1875 266.894531 353.113281 267.65625 352.988281 C 273.390625 352.054688 278.382812 347.972656 280.375 342.59375 C 280.949219 341.046875 281.265625 339.425781 281.335938 337.800781 C 292.671875 330.71875 303.195312 322.359375 312.777344 312.777344 C 317.035156 308.519531 321.046875 304.070312 324.816406 299.449219 C 325.074219 299.417969 325.332031 299.390625 325.59375 299.367188 C 327.335938 299.210938 329.644531 298.910156 332.085938 297.972656 C 332.820312 297.6875 333.535156 297.359375 334.210938 296.992188 C 339.316406 294.210938 342.679688 288.707031 342.78125 282.972656 C 342.824219 280.449219 342.246094 277.96875 341.164062 275.734375 C 344.714844 269.550781 347.90625 263.140625 350.707031 256.515625 C 359.941406 234.691406 364.621094 211.507812 364.621094 187.617188 Z M 224.363281 329.085938 C 223.433594 330.496094 222.753906 332.042969 222.316406 333.652344 C 211.078125 336.304688 199.453125 337.671875 187.617188 337.671875 C 147.535156 337.671875 109.855469 322.0625 81.511719 293.722656 C 53.171875 265.378906 37.5625 227.699219 37.5625 187.617188 C 37.5625 147.535156 53.171875 109.855469 81.511719 81.511719 C 109.855469 53.171875 147.535156 37.5625 187.617188 37.5625 C 227.699219 37.5625 265.378906 53.171875 293.722656 81.511719 C 322.0625 109.855469 337.671875 147.535156 337.671875 187.617188 C 337.671875 204.871094 334.761719 221.671875 329.207031 237.480469 C 328.035156 237.496094 326.878906 237.703125 325.792969 238.121094 C 325.695312 238.15625 325.601562 238.195312 325.503906 238.234375 C 324.675781 238.585938 323.894531 239.058594 323.171875 239.636719 C 322.003906 234.484375 319.195312 229.625 315.542969 226.5 C 311.164062 222.753906 306.285156 221.515625 302.15625 223.105469 C 301.109375 223.511719 300.121094 224.09375 299.226562 224.839844 C 296.5 227.117188 294.804688 230.636719 294.34375 234.902344 C 291.164062 231.992188 287.546875 230.46875 283.980469 230.574219 C 282.777344 230.609375 281.621094 230.839844 280.539062 231.253906 C 276.449219 232.828125 273.652344 236.976562 272.863281 242.632812 C 272.230469 247.183594 273.226562 252.414062 275.539062 256.914062 C 274.621094 256.914062 273.726562 257.03125 272.867188 257.269531 C 272.574219 257.347656 272.28125 257.445312 271.992188 257.558594 C 268.851562 258.765625 266.417969 261.601562 265.484375 265.144531 C 264.835938 267.609375 264.910156 270.289062 265.695312 273.304688 C 264.445312 272.847656 263.152344 272.621094 261.835938 272.664062 C 260.710938 272.695312 259.589844 272.921875 258.496094 273.332031 C 255.167969 274.578125 252.40625 277.339844 250.558594 281.210938 C 248.519531 277.414062 245.613281 274.78125 242.210938 273.699219 C 241.066406 273.335938 239.898438 273.167969 238.742188 273.203125 C 234.359375 273.335938 230.347656 276.324219 227.734375 281.402344 C 225.632812 285.488281 224.839844 290.753906 225.535156 295.765625 C 224.667969 295.460938 223.785156 295.277344 222.898438 295.214844 C 222.59375 295.195312 222.28125 295.191406 221.976562 295.199219 C 218.609375 295.300781 215.375 297.175781 213.324219 300.207031 C 211.75 302.539062 210.910156 305.402344 210.757812 308.964844 C 210.628906 311.964844 210.960938 314.953125 211.746094 317.851562 C 212.933594 322.222656 215.101562 325.285156 218.183594 326.949219 C 220.0625 327.964844 222.234375 328.46875 224.460938 328.398438 C 224.589844 328.394531 224.71875 328.390625 224.851562 328.382812 C 224.679688 328.613281 224.519531 328.847656 224.363281 329.085938 Z M 316.46875 249.433594 C 315.082031 250.90625 313.035156 251.6875 310.980469 251.726562 C 307.792969 251.785156 304.085938 250.132812 302.195312 247.480469 C 298.914062 242.882812 297.765625 232.730469 302.507812 228.773438 C 305.523438 226.261719 309.5625 228.125 312.210938 230.390625 C 315.394531 233.117188 317.5625 237.445312 318.320312 241.484375 C 318.40625 241.941406 318.46875 242.40625 318.5 242.875 C 318.660156 245.269531 318.082031 247.722656 316.46875 249.433594 Z M 293 258.496094 C 291.4375 259.828125 289.386719 260.597656 287.371094 260.417969 C 285.03125 260.207031 282.972656 258.753906 281.507812 256.851562 C 281.21875 256.480469 280.957031 256.09375 280.714844 255.691406 C 278.609375 252.167969 277.363281 247.488281 277.9375 243.339844 C 278.417969 239.886719 280.207031 235.808594 284.128906 235.695312 C 290.304688 235.515625 296.175781 243.875 296.765625 249.492188 C 297.109375 252.730469 295.429688 256.425781 293 258.496094 Z M 268.914062 282.863281 C 271.019531 286.484375 271.632812 291.289062 271.015625 295.351562 C 270.945312 295.8125 270.847656 296.273438 270.722656 296.722656 C 270.082031 299.039062 268.726562 301.160156 266.636719 302.242188 C 264.839844 303.171875 262.648438 303.234375 260.699219 302.589844 C 257.671875 301.589844 254.71875 298.804688 253.808594 295.675781 C 252.234375 290.253906 254.507812 280.292969 260.292969 278.128906 C 263.96875 276.75 267.167969 279.847656 268.914062 282.863281 Z M 231.1875 297.679688 C 231.039062 297.234375 230.917969 296.78125 230.824219 296.324219 C 230 292.300781 230.371094 287.472656 232.289062 283.746094 C 233.882812 280.648438 236.921875 277.394531 240.660156 278.582031 C 246.546875 280.453125 249.324219 290.285156 248.023438 295.78125 C 247.273438 298.949219 244.46875 301.882812 241.492188 303.03125 C 239.578125 303.773438 237.386719 303.824219 235.542969 302.984375 C 233.40625 302.011719 231.945312 299.960938 231.1875 297.679688 Z M 233.046875 315.65625 C 233.046875 315.664062 233.046875 315.667969 233.042969 315.675781 C 232.746094 321.148438 225.445312 325.050781 220.621094 322.445312 C 218.472656 321.285156 217.332031 318.867188 216.691406 316.511719 C 216.046875 314.128906 215.769531 311.648438 215.875 309.183594 C 215.964844 307.042969 216.371094 304.851562 217.570312 303.078125 C 218.660156 301.464844 220.546875 300.191406 222.554688 300.328125 C 223.75 300.40625 224.871094 300.976562 225.804688 301.730469 C 229.699219 304.867188 233.316406 310.519531 233.046875 315.65625 Z M 275.570312 340.8125 C 274.210938 344.488281 270.691406 347.304688 266.832031 347.933594 C 264.492188 348.316406 262.226562 347.980469 259.988281 347.414062 C 257.308594 346.738281 254.5625 346.445312 251.828125 346.527344 C 249.09375 346.609375 246.375 347.074219 243.738281 347.910156 C 241.539062 348.613281 239.300781 349.082031 236.941406 348.84375 C 233.050781 348.453125 229.363281 345.855469 227.78125 342.269531 C 226.324219 338.960938 226.660156 334.921875 228.644531 331.898438 C 231.761719 327.15625 237.519531 325.136719 240.078125 319.835938 C 242.417969 314.988281 244.074219 308.335938 250.660156 308.136719 C 257.246094 307.9375 259.300781 314.472656 261.933594 319.167969 C 264.808594 324.304688 270.679688 325.96875 274.078125 330.511719 C 276.246094 333.410156 276.828125 337.421875 275.570312 340.8125 Z M 285.003906 315.976562 C 284.355469 318.328125 283.203125 320.746094 281.054688 321.898438 C 276.21875 324.488281 268.933594 320.5625 268.652344 315.089844 C 268.652344 315.082031 268.652344 315.074219 268.652344 315.070312 C 268.394531 309.929688 272.035156 304.292969 275.9375 301.164062 C 276.871094 300.417969 277.996094 299.851562 279.191406 299.773438 C 281.199219 299.644531 283.082031 300.925781 284.167969 302.542969 C 285.359375 304.316406 285.757812 306.511719 285.84375 308.648438 C 285.941406 311.117188 285.65625 313.597656 285.003906 315.976562 Z M 279.722656 283.71875 C 277.3125 283.332031 275.4375 281.425781 274.054688 279.417969 C 272.65625 277.382812 271.574219 275.132812 270.859375 272.769531 C 270.238281 270.722656 269.894531 268.519531 270.4375 266.449219 C 270.933594 264.566406 272.296875 262.742188 274.234375 262.207031 C 275.390625 261.886719 276.636719 262.050781 277.765625 262.453125 C 282.476562 264.128906 287.761719 268.261719 289.207031 273.203125 C 289.207031 273.210938 289.207031 273.214844 289.210938 273.21875 C 290.738281 278.484375 285.140625 284.582031 279.722656 283.71875 Z M 331.761719 292.492188 C 329.679688 293.625 327.433594 294.058594 325.132812 294.265625 C 322.382812 294.511719 319.695312 295.140625 317.140625 296.125 C 314.585938 297.105469 312.171875 298.441406 309.964844 300.105469 C 308.117188 301.496094 306.160156 302.679688 303.859375 303.234375 C 300.054688 304.152344 295.71875 302.917969 293.039062 300.058594 C 290.566406 297.417969 289.546875 293.496094 290.421875 289.984375 C 291.796875 284.480469 296.5625 280.667969 297.222656 274.820312 C 297.828125 269.46875 297.191406 262.648438 303.339844 260.28125 C 309.488281 257.914062 313.59375 263.402344 317.628906 266.964844 C 322.039062 270.859375 328.132812 270.488281 332.84375 273.652344 C 335.847656 275.671875 337.722656 279.265625 337.65625 282.882812 C 337.589844 286.796875 335.199219 290.621094 331.761719 292.492188 Z M 336.578125 263.214844 C 332.871094 267.261719 324.695312 265.964844 322.621094 260.890625 C 322.617188 260.886719 322.613281 260.878906 322.613281 260.875 C 320.671875 256.105469 322.242188 249.582031 324.890625 245.34375 C 325.527344 244.324219 326.398438 243.421875 327.503906 242.953125 C 329.355469 242.167969 331.554688 242.753906 333.113281 243.917969 C 334.828125 245.199219 335.929688 247.140625 336.714844 249.128906 C 337.621094 251.425781 338.171875 253.859375 338.34375 256.320312 C 338.511719 258.757812 338.222656 261.417969 336.578125 263.214844 Z M 340.339844 244.792969 C 339.210938 242.699219 337.839844 241.054688 336.183594 239.816406 C 336.082031 239.742188 335.976562 239.671875 335.871094 239.597656 C 341.640625 223.113281 344.65625 205.597656 344.65625 187.617188 C 344.65625 145.671875 328.320312 106.234375 298.660156 76.574219 C 269 46.914062 229.5625 30.578125 187.617188 30.578125 C 145.671875 30.578125 106.234375 46.914062 76.574219 76.574219 C 46.914062 106.234375 30.578125 145.671875 30.578125 187.617188 C 30.578125 229.5625 46.914062 269 76.574219 298.660156 C 106.234375 328.320312 145.671875 344.65625 187.617188 344.65625 C 199.339844 344.65625 210.863281 343.371094 222.035156 340.882812 C 222.257812 342.0625 222.605469 343.226562 223.097656 344.339844 C 223.429688 345.097656 223.832031 345.820312 224.28125 346.507812 C 212.34375 349.257812 200.085938 350.652344 187.617188 350.652344 C 165.605469 350.652344 144.253906 346.34375 124.15625 337.84375 C 104.746094 329.632812 87.308594 317.875 72.332031 302.902344 C 57.359375 287.925781 45.601562 270.488281 37.390625 251.074219 C 28.890625 230.980469 24.582031 209.628906 24.582031 187.617188 C 24.582031 165.605469 28.890625 144.253906 37.390625 124.15625 C 45.601562 104.746094 57.359375 87.308594 72.332031 72.332031 C 87.308594 57.359375 104.746094 45.601562 124.15625 37.390625 C 144.253906 28.890625 165.605469 24.582031 187.617188 24.582031 C 209.628906 24.582031 230.980469 28.890625 251.074219 37.390625 C 270.488281 45.601562 287.925781 57.359375 302.902344 72.332031 C 317.875 87.308594 329.632812 104.746094 337.84375 124.15625 C 346.34375 144.253906 350.652344 165.605469 350.652344 187.617188 C 350.652344 207.351562 347.183594 226.550781 340.339844 244.792969 Z M 340.339844 244.792969 " fill-opacity="1" fill-rule="nonzero"/></g></svg>